<svg width="16" height="16" viewBox="0 0 16 16" fill="none" xmlns="http://www.w3.org/2000/svg">
<path d="M5.06665 2.13317V10.9332C5.06665 11.3222 5.22117 11.6952 5.49623 11.9703C5.77128 12.2453 6.14433 12.3998 6.53332 12.3998H12.4C12.789 12.3998 13.162 12.2453 13.4371 11.9703C13.7121 11.6952 13.8667 11.3222 13.8667 10.9332V4.51064C13.8666 4.31525 13.8276 4.12183 13.7518 3.94175C13.6759 3.76167 13.5649 3.59855 13.4252 3.46197L10.9942 1.0845C10.7202 0.816586 10.3522 0.666552 9.96898 0.666504H6.53332C6.14433 0.666504 5.77128 0.821027 5.49623 1.09608C5.22117 1.37113 5.06665 1.74419 5.06665 2.13317Z" stroke="#979797" stroke-width="1.33333" stroke-linecap="round" stroke-linejoin="round"/>
<path d="M10.9333 12.3997V13.8663C10.9333 14.2553 10.7788 14.6284 10.5037 14.9034C10.2287 15.1785 9.85562 15.333 9.46663 15.333H3.59997C3.21098 15.333 2.83793 15.1785 2.56288 14.9034C2.28782 14.6284 2.1333 14.2553 2.1333 13.8663V5.79967C2.1333 5.41069 2.28782 5.03764 2.56288 4.76258C2.83793 4.48753 3.21098 4.33301 3.59997 4.33301H5.06663" stroke="#979797" stroke-width="1.33333" stroke-linecap="round" stroke-linejoin="round"/>
</svg>
