<svg width="58" height="58" viewBox="0 0 58 58" fill="none" xmlns="http://www.w3.org/2000/svg">
<mask id="path-1-outside-1_192_934" maskUnits="userSpaceOnUse" x="0.111572" y="0.473633" width="57" height="58" fill="black">
<rect fill="white" x="0.111572" y="0.473633" width="57" height="58"/>
<path fill-rule="evenodd" clip-rule="evenodd" d="M28.8067 19.8411C19.4899 11.4597 11.0123 6.76537 8.70486 9.04982C6.38889 11.3428 11.0412 19.9218 19.3872 29.3633C11.1398 38.7345 6.56019 47.2205 8.86162 49.499C11.1561 51.7707 19.5517 47.1416 28.8067 38.8485C38.0617 47.1416 46.4573 51.7707 48.7518 49.499C51.0532 47.2205 46.4736 38.7345 38.2263 29.3633C46.5723 19.9218 51.2245 11.3428 48.9086 9.04982C46.6012 6.76537 38.1235 11.4597 28.8067 19.8411Z"/>
</mask>
<path d="M28.8067 19.8411L23.7168 25.499L28.8067 30.0779L33.8966 25.499L28.8067 19.8411ZM8.70486 9.04982L14.0593 14.4581L8.70486 9.04982ZM19.3872 29.3633L25.1002 34.3912L29.535 29.3522L25.0892 24.3229L19.3872 29.3633ZM8.86162 49.499L3.50716 54.9073L3.50717 54.9073L8.86162 49.499ZM28.8067 38.8485L33.8855 33.1807L28.8067 28.6297L23.7279 33.1807L28.8067 38.8485ZM48.7518 49.499L54.1063 54.9073L54.1063 54.9073L48.7518 49.499ZM38.2263 29.3633L32.5242 24.3229L28.0785 29.3522L32.5132 34.3912L38.2263 29.3633ZM48.9086 9.04982L54.263 3.64159L54.263 3.64158L48.9086 9.04982ZM33.8966 14.1831C28.976 9.75659 24.0324 6.07326 19.7529 3.75443C17.6615 2.6212 15.3236 1.58946 12.9836 1.12732C10.9804 0.731688 6.69207 0.333154 3.35041 3.64158L14.0593 14.4581C11.8713 16.6243 9.50804 15.9558 10.0345 16.0598C10.2242 16.0973 11.0206 16.3346 12.5016 17.1371C15.367 18.6897 19.3206 21.5442 23.7168 25.499L33.8966 14.1831ZM3.35041 3.64158C-0.00290108 6.96154 0.36603 11.271 0.745228 13.277C1.18938 15.6266 2.20467 17.982 3.32544 20.0937C5.61873 24.4146 9.27779 29.4179 13.6851 34.4037L25.0892 24.3229C21.1505 19.8672 18.3104 15.8603 16.7701 12.958C15.9741 11.4582 15.7389 10.6487 15.7013 10.4499C15.5987 9.90736 16.2546 12.2846 14.0593 14.4581L3.35041 3.64158ZM14.2161 44.0908C16.3989 46.2519 15.7619 48.6167 15.8579 48.0997C15.8921 47.9158 16.1175 47.1244 16.8992 45.643C18.4116 42.7773 21.209 38.8127 25.1002 34.3912L13.6741 24.3354C9.31795 29.2851 5.70181 34.2491 3.43792 38.5388C2.33156 40.6352 1.32808 42.9782 0.893128 45.3191C0.520061 47.327 0.173627 51.6069 3.50716 54.9073L14.2161 44.0908ZM23.7279 33.1807C19.3618 37.093 15.4455 39.9092 12.6123 41.4367C11.1477 42.2263 10.3672 42.4548 10.1908 42.4891C9.68693 42.5872 12.0393 41.9356 14.2161 44.0908L3.50717 54.9073C6.8312 58.1983 11.0934 57.8199 13.0983 57.4298C15.4306 56.9759 17.7576 55.9548 19.8356 54.8345C24.0877 52.542 28.9967 48.8971 33.8855 44.5164L23.7279 33.1807ZM23.7279 44.5164C28.6167 48.8971 33.5258 52.542 37.7778 54.8345C39.8558 55.9548 42.1828 56.9759 44.5151 57.4298C46.52 57.8199 50.7822 58.1983 54.1063 54.9073L43.3974 44.0908C45.5742 41.9356 47.9265 42.5872 47.4226 42.4891C47.2462 42.4548 46.4657 42.2263 45.0011 41.4367C42.168 39.9092 38.2517 37.093 33.8855 33.1807L23.7279 44.5164ZM54.1063 54.9073C57.4398 51.6069 57.0934 47.3269 56.7203 45.3191C56.2853 42.9782 55.2819 40.6352 54.1755 38.5388C51.9116 34.2491 48.2955 29.2851 43.9393 24.3354L32.5132 34.3912C36.4044 38.8127 39.2018 42.7773 40.7142 45.643C41.496 47.1244 41.7213 47.9158 41.7555 48.0997C41.8516 48.6167 41.2145 46.2519 43.3974 44.0908L54.1063 54.9073ZM43.5541 14.4581C41.3588 12.2846 42.0147 9.90736 41.9121 10.4499C41.8745 10.6487 41.6394 11.4582 40.8433 12.958C39.303 15.8603 36.4629 19.8672 32.5242 24.3229L43.9283 34.4037C48.3356 29.4179 51.9947 24.4146 54.288 20.0937C55.4088 17.982 56.424 15.6266 56.8682 13.277C57.2474 11.271 57.6163 6.96155 54.263 3.64159L43.5541 14.4581ZM33.8966 25.499C38.2928 21.5442 42.2464 18.6897 45.1118 17.1371C46.5928 16.3346 47.3893 16.0973 47.5789 16.0598C48.1054 15.9558 45.7421 16.6243 43.5541 14.4581L54.263 3.64158C50.9213 0.333155 46.6331 0.731688 44.6298 1.12732C42.2898 1.58946 39.952 2.6212 37.8605 3.75443C33.581 6.07326 28.6374 9.75659 23.7168 14.1831L33.8966 25.499Z" fill="url(#paint0_linear_192_934)" mask="url(#path-1-outside-1_192_934)"/>
<mask id="path-3-outside-2_192_934" maskUnits="userSpaceOnUse" x="21.4983" y="21.8662" width="15" height="15" fill="black">
<rect fill="white" x="21.4983" y="21.8662" width="15" height="15"/>
<path fill-rule="evenodd" clip-rule="evenodd" d="M28.9032 26.8351C31.3365 24.6461 33.5507 23.4201 34.1533 24.0167C34.7582 24.6156 33.5431 26.8562 31.3634 29.3221C33.5176 31.7697 34.7138 33.9862 34.1127 34.5814C33.5134 35.1747 31.3205 33.9656 28.9032 31.7994C26.486 33.9655 24.2932 35.1745 23.6939 34.5812C23.0928 33.9861 24.2889 31.7697 26.443 29.3221C24.2634 26.8563 23.0484 24.6157 23.6532 24.0169C24.2559 23.4203 26.4699 24.6462 28.9032 26.8351Z"/>
</mask>
<path d="M28.9032 26.8351L28.0233 27.8132L28.9032 28.6047L29.783 27.8132L28.9032 26.8351ZM34.1533 24.0167L35.0789 23.0818V23.0818L34.1533 24.0167ZM31.3634 29.3221L30.3777 28.4507L29.6091 29.3202L30.3758 30.1912L31.3634 29.3221ZM34.1127 34.5814L35.0383 35.5163L35.0383 35.5163L34.1127 34.5814ZM28.9032 31.7994L29.7811 30.8197L28.9032 30.0329L28.0252 30.8197L28.9032 31.7994ZM23.6939 34.5812L22.7683 35.5161H22.7683L23.6939 34.5812ZM26.443 29.3221L27.4306 30.1912L28.1972 29.3202L27.4287 28.4508L26.443 29.3221ZM23.6532 24.0169L24.5789 24.9518L24.5789 24.9518L23.6532 24.0169ZM29.783 27.8132C30.9544 26.7594 32.0307 25.9773 32.8415 25.538C33.2553 25.3138 33.5313 25.2167 33.6758 25.1882C33.8785 25.1482 33.555 25.2756 33.2277 24.9516L35.0789 23.0818C34.4503 22.4594 33.624 22.5164 33.166 22.6069C32.6498 22.7088 32.1073 22.9432 31.588 23.2246C30.5327 23.7964 29.2853 24.7218 28.0233 25.857L29.783 27.8132ZM33.2277 24.9516C32.8993 24.6265 33.0254 24.3009 32.9864 24.5072C32.9586 24.6541 32.8627 24.9338 32.6405 25.3525C32.205 26.1731 31.427 27.2636 30.3777 28.4507L32.3491 30.1934C33.4795 28.9146 34.399 27.6519 34.9647 26.586C35.243 26.0615 35.4737 25.5146 35.5718 24.9959C35.6586 24.5366 35.7097 23.7063 35.0789 23.0818L33.2277 24.9516ZM35.0383 35.5163C35.6654 34.8954 35.6183 34.0709 35.5331 33.6124C35.4371 33.0962 35.2094 32.5528 34.9348 32.0324C34.3766 30.9748 33.4682 29.7224 32.351 28.4529L30.3758 30.1912C31.4127 31.3694 32.1795 32.4491 32.6077 33.2605C32.8263 33.6746 32.9195 33.9498 32.9461 34.0931C32.9835 34.294 32.8605 33.9697 33.187 33.6464L35.0383 35.5163ZM28.0252 32.7792C29.279 33.9028 30.5174 34.8182 31.5653 35.3832C32.081 35.6612 32.6205 35.8929 33.1345 35.993C33.5918 36.082 34.413 36.1353 35.0383 35.5163L33.187 33.6464C33.5127 33.324 33.835 33.4487 33.6371 33.4102C33.4958 33.3827 33.2237 33.288 32.814 33.0672C32.0114 32.6344 30.9446 31.8622 29.7811 30.8197L28.0252 32.7792ZM28.0252 30.8197C26.8618 31.8622 25.7951 32.6343 24.9925 33.067C24.5828 33.2879 24.3107 33.3826 24.1694 33.41C23.9715 33.4486 24.2939 33.3239 24.6195 33.6463L22.7683 35.5161C23.3936 36.1351 24.2147 36.0818 24.672 35.9928C25.186 35.8928 25.7255 35.6611 26.2411 35.3831C27.289 34.8181 28.5273 33.9027 29.7811 32.7792L28.0252 30.8197ZM24.6195 33.6463C24.946 33.9696 24.8231 34.2938 24.8604 34.0929C24.887 33.9496 24.9802 33.6744 25.1988 33.2603C25.627 32.449 26.3937 31.3694 27.4306 30.1912L25.4554 28.4529C24.3382 29.7224 23.4299 30.9747 22.8717 32.0323C22.5971 32.5526 22.3694 33.0961 22.2735 33.6122C22.1883 34.0708 22.1412 34.8952 22.7683 35.5161L24.6195 33.6463ZM22.7276 23.082C22.0968 23.7065 22.1479 24.5367 22.2347 24.996C22.3328 25.5147 22.5635 26.0616 22.8419 26.5861C23.4075 27.652 24.327 28.9147 25.4573 30.1934L27.4287 28.4508C26.3794 27.2637 25.6015 26.1732 25.166 25.3526C24.9438 24.9339 24.8479 24.6543 24.8202 24.5074C24.7812 24.3011 24.9072 24.6267 24.5789 24.9518L22.7276 23.082ZM29.783 25.857C28.5211 24.7218 27.2737 23.7965 26.2185 23.2247C25.6992 22.9433 25.1567 22.709 24.6405 22.607C24.1825 22.5166 23.3562 22.4596 22.7276 23.082L24.5789 24.9518C24.2516 25.2758 23.928 25.1484 24.1307 25.1884C24.2752 25.2169 24.5512 25.314 24.965 25.5381C25.7757 25.9774 26.852 26.7595 28.0233 27.8132L29.783 25.857Z" fill="url(#paint1_linear_192_934)" mask="url(#path-3-outside-2_192_934)"/>
<defs>
<linearGradient id="paint0_linear_192_934" x1="28.8067" y1="8.47363" x2="28.8067" y2="50.0753" gradientUnits="userSpaceOnUse">
<stop stop-color="#FFF4EA"/>
<stop offset="1" stop-color="#F8F3FF"/>
</linearGradient>
<linearGradient id="paint1_linear_192_934" x1="28.9033" y1="23.8662" x2="28.9033" y2="34.7318" gradientUnits="userSpaceOnUse">
<stop stop-color="#FFF4EA"/>
<stop offset="1" stop-color="#F8F3FF"/>
</linearGradient>
</defs>
</svg>
