<svg width="189" height="34" viewBox="0 0 189 34" fill="none" xmlns="http://www.w3.org/2000/svg">
<mask id="path-2-outside-1_192_904" maskUnits="userSpaceOnUse" x="-0.481445" y="0.306396" width="33" height="34" fill="black">
<rect fill="white" x="-0.481445" y="0.306396" width="33" height="34"/>
<path fill-rule="evenodd" clip-rule="evenodd" d="M16.3443 11.802C11.0205 7.01271 6.17609 4.33025 4.85758 5.63565C3.53417 6.94589 6.19259 11.8482 10.9617 17.2433C6.2489 22.5983 3.63197 27.4475 4.94708 28.7495C6.2582 30.0476 11.0557 27.4024 16.3443 22.6635C21.6329 27.4024 26.4304 30.0476 27.7415 28.7495C29.0567 27.4475 26.4397 22.5983 21.7269 17.2433C26.496 11.8482 29.1545 6.94589 27.8311 5.63565C26.5125 4.33025 21.6682 7.01271 16.3443 11.802Z"/>
</mask>
<path d="M16.3443 11.802L13.4358 15.0352L16.3443 17.6516L19.2528 15.0352L16.3443 11.802ZM4.85758 5.63565L7.91726 8.72607L4.85758 5.63565ZM10.9617 17.2433L14.2263 20.1164L16.7605 17.237L14.22 14.3631L10.9617 17.2433ZM4.94708 28.7495L8.00677 25.6591H8.00677L4.94708 28.7495ZM16.3443 22.6635L19.2465 19.4247L16.3443 16.8241L13.4421 19.4247L16.3443 22.6635ZM27.7415 28.7495L24.6819 25.6591L27.7415 28.7495ZM21.7269 17.2433L18.4686 14.3631L15.9282 17.237L18.4623 20.1164L21.7269 17.2433ZM27.8311 5.63565L30.8907 2.54523V2.54523L27.8311 5.63565ZM19.2528 8.56893C16.4411 6.03949 13.6162 3.93474 11.1707 2.6097C9.97562 1.96214 8.63969 1.37258 7.30256 1.1085C6.15785 0.882428 3.70741 0.654698 1.79789 2.54523L7.91726 8.72607C6.667 9.9639 5.31654 9.58195 5.61735 9.64136C5.72575 9.66277 6.18086 9.79839 7.02714 10.2569C8.66448 11.1441 10.9237 12.7753 13.4358 15.0352L19.2528 8.56893ZM1.79789 2.54523C-0.118283 4.44234 0.0925298 6.90487 0.309213 8.05117C0.563012 9.39381 1.14317 10.7397 1.78361 11.9464C3.09406 14.4155 5.18494 17.2745 7.7034 20.1236L14.22 14.3631C11.9694 11.817 10.3465 9.52731 9.46628 7.86889C9.0114 7.01183 8.87702 6.54931 8.85554 6.43567C8.79694 6.12567 9.17173 7.48408 7.91726 8.72607L1.79789 2.54523ZM8.00677 25.6591C9.2541 26.894 8.89008 28.2453 8.94497 27.9498C8.9645 27.8447 9.09328 27.3925 9.54001 26.546C10.4042 24.9085 12.0027 22.643 14.2263 20.1164L7.6971 14.3702C5.20787 17.1986 3.14149 20.0352 1.84784 22.4865C1.21563 23.6844 0.642208 25.0233 0.393661 26.3609C0.180479 27.5083 -0.0174904 29.954 1.88739 31.8399L8.00677 25.6591ZM13.4421 19.4247C10.9472 21.6603 8.7093 23.2696 7.09036 24.1424C6.25343 24.5936 5.80741 24.7242 5.7066 24.7438C5.41868 24.7999 6.76288 24.4275 8.00677 25.6591L1.88739 31.8399C3.78685 33.7205 6.2224 33.5043 7.36805 33.2813C8.70079 33.022 10.0305 32.4385 11.2179 31.7983C13.6477 30.4883 16.4529 28.4055 19.2465 25.9022L13.4421 19.4247ZM13.4421 25.9022C16.2358 28.4055 19.0409 30.4883 21.4707 31.7983C22.6581 32.4385 23.9878 33.022 25.3206 33.2813C26.4662 33.5043 28.9018 33.7205 30.8012 31.8399L24.6819 25.6591C25.9257 24.4275 27.2699 24.7999 26.982 24.7438C26.8812 24.7242 26.4352 24.5936 25.5983 24.1424C23.9793 23.2696 21.7414 21.6603 19.2465 19.4247L13.4421 25.9022ZM30.8012 31.8399C32.7061 29.954 32.5081 27.5083 32.295 26.361C32.0464 25.0233 31.473 23.6844 30.8408 22.4865C29.5471 20.0352 27.4808 17.1986 24.9915 14.3702L18.4623 20.1164C20.6859 22.643 22.2844 24.9085 23.1486 26.546C23.5953 27.3925 23.7241 27.8447 23.7437 27.9498C23.7985 28.2453 23.4345 26.894 24.6819 25.6591L30.8012 31.8399ZM24.7714 8.72607C23.5169 7.48408 23.8917 6.12568 23.8331 6.43567C23.8116 6.54931 23.6772 7.01183 23.2223 7.86889C22.3422 9.52731 20.7193 11.817 18.4686 14.3631L24.9852 20.1236C27.5037 17.2745 29.5946 14.4155 30.905 11.9464C31.5455 10.7397 32.1256 9.39381 32.3794 8.05117C32.5961 6.90487 32.8069 4.44234 30.8907 2.54523L24.7714 8.72607ZM19.2528 15.0352C21.7649 12.7753 24.0241 11.1441 25.6615 10.2569C26.5078 9.79839 26.9629 9.66277 27.0713 9.64136C27.3721 9.58195 26.0216 9.9639 24.7714 8.72607L30.8907 2.54523C28.9812 0.654698 26.5308 0.882428 25.3861 1.1085C24.0489 1.37258 22.713 1.96214 21.5179 2.6097C19.0725 3.93474 16.2476 6.03949 13.4358 8.56893L19.2528 15.0352Z" fill="url(#paint0_linear_192_904)" mask="url(#path-2-outside-1_192_904)"/>
<mask id="path-4-outside-2_192_904" maskUnits="userSpaceOnUse" x="12.3108" y="13.1023" width="8" height="8" fill="black">
<rect fill="white" x="12.3108" y="13.1023" width="8" height="8"/>
<path fill-rule="evenodd" clip-rule="evenodd" d="M16.3994 15.7988C15.0089 14.5479 13.7437 13.8473 13.3993 14.1883C13.0537 14.5305 13.748 15.8109 14.9936 17.22C13.7627 18.6186 13.0792 19.8851 13.4227 20.2251C13.7651 20.5642 15.0182 19.8733 16.3994 18.6356C17.7807 19.8733 19.0337 20.5642 19.3761 20.2251C19.7196 19.8851 19.0361 18.6186 17.8052 17.22C19.0508 15.8109 19.7452 14.5305 19.3995 14.1883C19.0551 13.8473 17.7899 14.5479 16.3994 15.7988Z"/>
</mask>
<path d="M16.3994 15.7988L15.8966 16.3577L16.3994 16.81L16.9022 16.3577L16.3994 15.7988ZM13.3993 14.1883L13.9283 14.7225L13.9283 14.7225L13.3993 14.1883ZM14.9936 17.22L15.5579 17.7166L15.996 17.2189L15.5569 16.7221L14.9936 17.22ZM13.4227 20.2251L13.9516 19.6909L13.9516 19.6909L13.4227 20.2251ZM16.3994 18.6356L16.9011 18.0757L16.3994 17.6262L15.8977 18.0757L16.3994 18.6356ZM19.3761 20.2251L18.8472 19.6909H18.8472L19.3761 20.2251ZM17.8052 17.22L17.242 16.7221L16.8028 17.2189L17.2409 17.7166L17.8052 17.22ZM19.3995 14.1883L18.8706 14.7225L19.3995 14.1883ZM16.9022 15.2399C16.1811 14.5912 15.4682 14.0624 14.8652 13.7356C14.5685 13.5749 14.2585 13.4409 13.9635 13.3827C13.7018 13.331 13.2296 13.2984 12.8704 13.6541L13.9283 14.7225C13.7412 14.9077 13.5564 14.8348 13.6722 14.8577C13.7548 14.874 13.9125 14.9295 14.1489 15.0576C14.6123 15.3086 15.2273 15.7556 15.8966 16.3577L16.9022 15.2399ZM12.8704 13.6541C12.51 14.0109 12.5392 14.4854 12.5888 14.7478C12.6448 15.0442 12.7766 15.3568 12.9357 15.6565C13.259 16.2656 13.7844 16.9871 14.4303 17.7179L15.5569 16.7221C14.9572 16.0437 14.5127 15.4205 14.2638 14.9516C14.1368 14.7123 14.082 14.5525 14.0662 14.4686C14.0439 14.3507 14.1159 14.5367 13.9283 14.7225L12.8704 13.6541ZM13.9516 19.6909C14.1382 19.8756 14.068 20.0609 14.0893 19.9461C14.1045 19.8642 14.1578 19.707 14.2826 19.4704C14.5273 19.0068 14.9655 18.3898 15.5579 17.7166L14.4293 16.7233C13.7909 17.4487 13.2718 18.1643 12.9529 18.7686C12.796 19.066 12.6658 19.3765 12.611 19.6715C12.5623 19.9335 12.5355 20.4046 12.8938 20.7594L13.9516 19.6909ZM15.8977 18.0757C15.2329 18.6714 14.6234 19.1126 14.1647 19.3599C13.9307 19.4861 13.7752 19.5402 13.6944 19.5559C13.5814 19.5779 13.7655 19.5067 13.9516 19.6909L12.8938 20.7594C13.2511 21.1131 13.7203 21.0826 13.9816 21.0318C14.2753 20.9746 14.5836 20.8422 14.8783 20.6834C15.4771 20.3605 16.1847 19.8375 16.9011 19.1955L15.8977 18.0757ZM15.8977 19.1955C16.6142 19.8375 17.3218 20.3605 17.9206 20.6834C18.2152 20.8422 18.5235 20.9746 18.8172 21.0318C19.0785 21.0826 19.5478 21.1131 19.9051 20.7594L18.8472 19.6909C19.0333 19.5067 19.2175 19.5779 19.1044 19.5559C19.0237 19.5402 18.8682 19.4861 18.6341 19.3599C18.1755 19.1126 17.5659 18.6714 16.9011 18.0757L15.8977 19.1955ZM19.9051 20.7594C20.2634 20.4046 20.2365 19.9335 20.1878 19.6715C20.133 19.3765 20.0029 19.066 19.8459 18.7686C19.527 18.1643 19.008 17.4487 18.3696 16.7233L17.2409 17.7166C17.8334 18.3898 18.2715 19.0068 18.5162 19.4704C18.6411 19.707 18.6944 19.8642 18.7096 19.9461C18.7309 20.0609 18.6606 19.8756 18.8472 19.6909L19.9051 20.7594ZM18.8706 14.7225C18.683 14.5367 18.755 14.3507 18.7327 14.4686C18.7168 14.5525 18.662 14.7123 18.535 14.9516C18.2862 15.4205 17.8416 16.0437 17.242 16.7221L18.3685 17.7179C19.0144 16.9871 19.5399 16.2656 19.8631 15.6565C20.0222 15.3568 20.154 15.0442 20.2101 14.7478C20.2597 14.4854 20.2889 14.0109 19.9284 13.6541L18.8706 14.7225ZM16.9022 16.3577C17.5715 15.7556 18.1866 15.3086 18.6499 15.0576C18.8863 14.9295 19.0441 14.874 19.1267 14.8577C19.2425 14.8348 19.0576 14.9077 18.8706 14.7225L19.9284 13.6541C19.5692 13.2984 19.0971 13.331 18.8353 13.3827C18.5404 13.4409 18.2303 13.5749 17.9336 13.7356C17.3306 14.0624 16.6178 14.5912 15.8966 15.2399L16.9022 16.3577Z" fill="url(#paint1_linear_192_904)" mask="url(#path-4-outside-2_192_904)"/>
<path d="M59.0944 8.2V11.08H54.1744V25H51.2944V11.08H46.3504V8.2H51.2944H54.1744H59.0944ZM70.0914 12.976V25H67.2114V19C67.2114 18.04 66.8754 17.224 66.2034 16.552C65.5314 15.88 64.7154 15.544 63.7554 15.544C63.2914 15.544 62.8434 15.632 62.4114 15.808C61.9954 15.984 61.6274 16.232 61.3074 16.552C60.6354 17.224 60.2994 18.04 60.2994 19C60.2994 19.944 60.6354 20.752 61.3074 21.424C61.6274 21.76 61.9954 22.016 62.4114 22.192C62.8434 22.352 63.2914 22.432 63.7554 22.432C64.2354 22.432 64.6674 22.352 65.0514 22.192L66.0834 24.76C65.3474 25.128 64.4914 25.312 63.5154 25.312C62.6354 25.312 61.8194 25.152 61.0674 24.832C60.3314 24.496 59.6914 24.04 59.1474 23.464C58.6034 22.888 58.1794 22.216 57.8754 21.448C57.5714 20.68 57.4194 19.864 57.4194 19C57.4194 18.12 57.5714 17.296 57.8754 16.528C58.1794 15.76 58.6034 15.088 59.1474 14.512C59.6914 13.936 60.3314 13.488 61.0674 13.168C61.8194 12.832 62.6354 12.664 63.5154 12.664C64.2994 12.664 64.9954 12.784 65.6034 13.024C66.2114 13.264 66.7474 13.568 67.2114 13.936V12.976H70.0914ZM75.1354 25H72.2554V8.2H75.1354V25ZM88.221 13L82.221 19L88.221 25H84.165L80.181 21.016V25H77.301V8.2H80.181V16.96L84.141 13H88.221ZM100.32 25H97.6798C97.1358 25 96.6238 24.896 96.1438 24.688C95.6638 24.48 95.2478 24.2 94.8958 23.848C94.5438 23.48 94.2638 23.056 94.0558 22.576C93.8478 22.096 93.7438 21.584 93.7438 21.04V10.576L96.6238 9.856V14.44H98.3038L99.0238 17.32H96.6238V21.04C96.6238 21.344 96.7278 21.6 96.9358 21.808C97.1438 22.016 97.3918 22.12 97.6798 22.12H99.5998L100.32 25ZM107.382 15.544C106.422 15.544 105.606 15.88 104.934 16.552C104.262 17.224 103.926 18.04 103.926 19C103.926 19.944 104.262 20.752 104.934 21.424C105.254 21.76 105.622 22.016 106.038 22.192C106.47 22.352 106.918 22.432 107.382 22.432C107.846 22.432 108.286 22.352 108.702 22.192C109.118 22.016 109.494 21.76 109.83 21.424C110.502 20.752 110.838 19.944 110.838 19C110.838 18.04 110.502 17.224 109.83 16.552C109.126 15.88 108.31 15.544 107.382 15.544ZM107.382 12.664C108.262 12.664 109.086 12.832 109.854 13.168C110.622 13.488 111.294 13.936 111.87 14.512C112.446 15.088 112.894 15.76 113.214 16.528C113.55 17.296 113.718 18.12 113.718 19C113.718 19.864 113.55 20.68 113.214 21.448C112.894 22.216 112.446 22.888 111.87 23.464C111.294 24.04 110.622 24.496 109.854 24.832C109.086 25.152 108.262 25.312 107.382 25.312C106.502 25.312 105.678 25.152 104.91 24.832C104.142 24.496 103.47 24.04 102.894 23.464C102.318 22.888 101.862 22.216 101.526 21.448C101.206 20.68 101.046 19.864 101.046 19C101.046 18.12 101.206 17.296 101.526 16.528C101.862 15.76 102.318 15.088 102.894 14.512C103.47 13.936 104.142 13.488 104.91 13.168C105.678 12.832 106.502 12.664 107.382 12.664ZM135.968 16.576C135.968 17.504 135.832 18.384 135.56 19.216C135.304 20.048 134.936 20.816 134.456 21.52L135.968 23.056V27.136L127.232 18.4V14.32L132.368 19.432C132.848 18.568 133.088 17.616 133.088 16.576C133.088 15.792 132.944 15.048 132.656 14.344C132.368 13.64 131.944 13.008 131.384 12.448C130.824 11.888 130.192 11.464 129.488 11.176C128.784 10.872 128.032 10.72 127.232 10.72C126.448 10.72 125.704 10.872 125 11.176C124.296 11.464 123.664 11.888 123.104 12.448C122.544 13.008 122.12 13.64 121.832 14.344C121.544 15.048 121.4 15.792 121.4 16.576C121.4 17.36 121.544 18.112 121.832 18.832C122.12 19.536 122.544 20.168 123.104 20.728C123.664 21.288 124.296 21.712 125 22C125.704 22.288 126.448 22.432 127.232 22.432C127.44 22.432 127.64 22.424 127.832 22.408C128.04 22.376 128.24 22.344 128.432 22.312L130.712 24.592C130.184 24.816 129.624 24.992 129.032 25.12C128.456 25.248 127.856 25.312 127.232 25.312C126.032 25.312 124.896 25.088 123.824 24.64C122.768 24.176 121.848 23.552 121.064 22.768C120.28 21.968 119.656 21.04 119.192 19.984C118.744 18.912 118.52 17.776 118.52 16.576C118.52 15.376 118.744 14.248 119.192 13.192C119.656 12.12 120.28 11.192 121.064 10.408C121.848 9.608 122.768 8.984 123.824 8.536C124.896 8.072 126.032 7.84 127.232 7.84C128.448 7.84 129.584 8.072 130.64 8.536C131.696 8.984 132.616 9.608 133.4 10.408C134.2 11.192 134.824 12.12 135.272 13.192C135.736 14.248 135.968 15.376 135.968 16.576ZM149.273 13V25H146.393V24.088C145.961 24.456 145.473 24.76 144.929 25C144.385 25.224 143.777 25.336 143.105 25.336C142.321 25.336 141.609 25.192 140.969 24.904C140.329 24.6 139.777 24.192 139.313 23.68C138.865 23.168 138.513 22.568 138.257 21.88C138.017 21.192 137.897 20.456 137.897 19.672V13H140.777V19.672C140.777 20.424 141.057 21.08 141.617 21.64C142.161 22.184 142.817 22.456 143.585 22.456C144.369 22.456 145.033 22.184 145.577 21.64C146.121 21.096 146.393 20.44 146.393 19.672V13H149.273ZM154.313 13.912C154.761 13.544 155.265 13.24 155.825 13C156.401 12.76 157.049 12.64 157.769 12.64V15.52C156.809 15.52 155.993 15.856 155.321 16.528C154.649 17.232 154.313 18.048 154.313 18.976V25H151.433V18.976V12.976H154.313V13.912ZM171.149 12.976V25H168.269V19C168.269 18.04 167.933 17.224 167.261 16.552C166.589 15.88 165.773 15.544 164.813 15.544C164.349 15.544 163.901 15.632 163.469 15.808C163.053 15.984 162.685 16.232 162.365 16.552C161.693 17.224 161.357 18.04 161.357 19C161.357 19.944 161.693 20.752 162.365 21.424C162.685 21.76 163.053 22.016 163.469 22.192C163.901 22.352 164.349 22.432 164.813 22.432C165.293 22.432 165.725 22.352 166.109 22.192L167.141 24.76C166.405 25.128 165.549 25.312 164.573 25.312C163.693 25.312 162.877 25.152 162.125 24.832C161.389 24.496 160.749 24.04 160.205 23.464C159.661 22.888 159.237 22.216 158.933 21.448C158.629 20.68 158.477 19.864 158.477 19C158.477 18.12 158.629 17.296 158.933 16.528C159.237 15.76 159.661 15.088 160.205 14.512C160.749 13.936 161.389 13.488 162.125 13.168C162.877 12.832 163.693 12.664 164.573 12.664C165.357 12.664 166.053 12.784 166.661 13.024C167.269 13.264 167.805 13.568 168.269 13.936V12.976H171.149ZM179.481 12.664C180.265 12.664 180.977 12.816 181.617 13.12C182.257 13.408 182.801 13.816 183.249 14.344C183.713 14.856 184.065 15.456 184.305 16.144C184.561 16.832 184.689 17.568 184.689 18.352V25H181.809V18.352C181.809 17.552 181.529 16.888 180.969 16.36C180.425 15.816 179.769 15.544 179.001 15.544C178.217 15.544 177.553 15.816 177.009 16.36C176.465 16.904 176.193 17.568 176.193 18.352V25H173.313V13H176.193V13.912C176.625 13.544 177.113 13.248 177.657 13.024C178.201 12.784 178.809 12.664 179.481 12.664Z" fill="#FFF4EA"/>
<defs>
<linearGradient id="paint0_linear_192_904" x1="16.3443" y1="5.3064" x2="16.3443" y2="29.0788" gradientUnits="userSpaceOnUse">
<stop stop-color="#FFF4EA"/>
<stop offset="1" stop-color="#F8F3FF"/>
</linearGradient>
<linearGradient id="paint1_linear_192_904" x1="16.3994" y1="14.1023" x2="16.3994" y2="20.3111" gradientUnits="userSpaceOnUse">
<stop stop-color="#FFF4EA"/>
<stop offset="1" stop-color="#F8F3FF"/>
</linearGradient>
</defs>
</svg>
