<svg width="20" height="16" viewBox="0 0 20 16" fill="none" xmlns="http://www.w3.org/2000/svg">
<g clip-path="url(#clip0_176_924)">
<path d="M18.9997 7.16038L12.1425 0.204021C12.0466 0.106677 11.9245 0.0403535 11.7915 0.0134392C11.6584 -0.0134751 11.5206 0.000228545 11.3952 0.0528169C11.2699 0.105405 11.1627 0.194516 11.0873 0.30888C11.0119 0.423244 10.9717 0.557725 10.9716 0.695314V4.20393C8.74812 4.39697 6.29235 5.50129 4.27203 7.23951C1.83941 9.33337 0.324811 12.0316 0.00680517 14.8367C-0.0180458 15.0548 0.025544 15.2753 0.131371 15.4668C0.237198 15.6583 0.39987 15.8111 0.596237 15.9033C0.792603 15.9956 1.01266 16.0227 1.22509 15.9808C1.43752 15.9388 1.63149 15.83 1.77941 15.6697C2.72229 14.6515 6.07721 11.4316 10.9716 11.1481V14.608C10.9717 14.7456 11.0119 14.8801 11.0873 14.9945C11.1627 15.1088 11.2699 15.1979 11.3952 15.2505C11.5206 15.3031 11.6584 15.3168 11.7915 15.2899C11.9245 15.263 12.0466 15.1967 12.1425 15.0993L18.9997 8.14297C19.128 8.01256 19.2 7.83588 19.2 7.65167C19.2 7.46747 19.128 7.29079 18.9997 7.16038ZM12.343 12.9289V10.4342C12.343 10.2497 12.2708 10.0728 12.1422 9.94233C12.0136 9.81187 11.8392 9.73858 11.6573 9.73858C9.25041 9.73858 6.90608 10.376 4.68947 11.6342C3.56054 12.2779 2.50869 13.0517 1.55483 13.9402C2.05199 11.8672 3.30515 9.89597 5.15919 8.30035C7.14951 6.58822 9.5787 5.56477 11.6573 5.56477C11.8392 5.56477 12.0136 5.49148 12.1422 5.36102C12.2708 5.23056 12.343 5.05362 12.343 4.86913V2.37528L17.5451 7.65167L12.343 12.9289Z" fill="#979797"/>
</g>
<defs>
<clipPath id="clip0_176_924">
<rect width="19.2" height="16" fill="white"/>
</clipPath>
</defs>
</svg>
